<?xml version="1.0" standalone="no"?>
<!DOCTYPE svg PUBLIC "-//W3C//DTD SVG 20010904//EN"
 "http://www.w3.org/TR/2001/REC-SVG-20010904/DTD/svg10.dtd">
<svg version="1.0" xmlns="http://www.w3.org/2000/svg"
 width="512.000000pt" height="512.000000pt" viewBox="0 0 512.000000 512.000000"
 preserveAspectRatio="xMidYMid meet">
<metadata>
Created by potrace 1.11, written by Peter Selinger 2001-2013
</metadata>
<g transform="translate(0.000000,512.000000) scale(0.100000,-0.100000)"
fill="#000000" stroke="none">
<path d="M2315 5010 c-33 -5 -82 -11 -110 -15 -41 -5 -129 -22 -261 -50 -11
-3 -70 -21 -130 -41 -289 -95 -532 -226 -769 -413 -97 -77 -310 -290 -386
-386 -74 -95 -219 -313 -219 -331 0 -7 -3 -14 -7 -16 -22 -9 -183 -384 -183
-424 0 -9 -5 -12 -12 -8 -6 4 -8 3 -4 -4 3 -6 -3 -44 -14 -84 -12 -40 -23 -84
-26 -98 -2 -14 -7 -36 -11 -50 -3 -14 -7 -32 -8 -40 -12 -78 -18 -106 -27
-111 -7 -4 -7 -8 0 -10 6 -3 7 -23 1 -58 -4 -30 -6 -58 -3 -63 3 -4 2 -8 -3
-8 -4 0 -6 -21 -4 -46 2 -37 0 -45 -10 -38 -11 6 -12 4 -4 -7 12 -16 13 -88 2
-106 -5 -7 -4 -13 0 -13 5 0 9 -33 9 -72 0 -72 10 -214 18 -254 3 -12 7 -39
11 -60 3 -22 9 -52 11 -69 3 -16 8 -41 11 -55 3 -14 6 -35 6 -47 1 -13 5 -23
8 -23 4 0 10 -15 13 -34 4 -19 20 -76 36 -127 16 -50 27 -96 23 -102 -3 -6 -1
-7 5 -3 7 4 12 2 12 -4 0 -25 109 -262 154 -335 18 -29 22 -43 14 -53 -8 -9
-7 -11 6 -6 12 5 19 0 23 -15 3 -11 9 -21 13 -21 4 0 10 -8 14 -17 5 -16 17
-37 38 -67 5 -6 39 -52 77 -102 39 -51 67 -95 63 -99 -4 -5 -2 -5 5 -1 14 7
56 -47 45 -59 -4 -5 -2 -6 3 -2 6 3 45 -29 87 -71 91 -93 121 -120 218 -197
41 -33 77 -63 78 -67 2 -5 8 -8 12 -8 18 0 119 -77 112 -85 -4 -5 -1 -5 6 -1
8 5 21 2 30 -7 19 -16 241 -137 252 -137 4 0 20 -6 36 -14 101 -48 257 -106
288 -106 9 0 16 -5 16 -11 0 -5 4 -8 9 -5 4 3 23 1 42 -5 19 -6 45 -12 59 -15
14 -3 41 -9 60 -14 19 -5 51 -11 70 -14 19 -3 44 -7 55 -10 11 -2 52 -7 90
-11 39 -4 84 -9 100 -11 49 -7 353 -6 365 1 5 3 10 0 10 -7 0 -9 3 -9 8 -2 4
6 21 11 37 11 37 0 128 13 208 29 16 3 34 0 43 -7 12 -10 13 -9 8 5 -4 12 0
16 15 16 30 0 27 -1 71 15 22 8 40 12 40 10 0 -2 47 12 105 30 57 18 107 30
110 27 3 -3 5 0 5 7 0 8 8 11 20 8 11 -3 18 -2 15 2 -2 5 15 14 38 21 23 8 48
18 55 23 6 5 12 6 12 1 0 -5 4 -4 8 1 15 20 231 122 236 111 2 -6 5 -3 5 7 1
9 13 23 29 30 15 6 29 14 32 17 3 3 30 21 60 40 90 57 238 176 338 274 52 50
99 90 104 88 5 -1 7 1 4 6 -3 5 19 35 49 68 30 32 55 61 55 64 0 3 10 16 23
30 12 14 35 44 51 67 16 24 33 40 39 36 6 -3 7 -1 3 5 -5 9 34 79 72 127 8 11
58 105 101 190 13 28 29 53 34 56 5 3 8 9 7 13 -4 12 44 126 53 126 4 0 6 3 4
8 -7 9 38 143 46 136 3 -3 5 1 4 8 -1 36 4 59 13 53 5 -3 7 0 4 8 -3 8 0 35 7
58 15 51 13 44 22 89 4 19 9 46 12 60 6 29 14 85 21 150 3 25 9 70 13 102 8
63 6 389 -4 456 -3 23 -8 62 -10 85 -2 23 -4 42 -5 42 -1 0 -3 11 -6 25 -12
69 -28 142 -45 204 -10 38 -16 73 -13 77 3 5 1 9 -3 9 -5 0 -19 34 -32 76 -72
230 -215 498 -389 724 -79 103 -320 344 -423 422 -339 259 -732 426 -1134 484
-22 3 -51 8 -65 10 -43 9 -472 12 -535 4z m-426 -1252 c30 -15 45 -31 67 -72
14 -26 16 -141 16 -1086 0 -582 -3 -1069 -7 -1081 -12 -39 -44 -78 -78 -96
-27 -13 -68 -16 -264 -15 -263 0 -273 2 -326 78 l-29 41 0 1059 c0 703 4 1068
10 1086 13 31 67 89 76 81 3 -4 6 -2 6 4 0 5 26 11 57 12 32 1 58 3 59 4 1 1
89 1 195 0 136 -1 200 -6 218 -15z m1366 9 c67 -11 99 -17 115 -24 8 -3 22 -7
31 -9 41 -8 216 -98 231 -119 5 -6 8 -6 8 -1 0 6 7 1 15 -10 8 -10 15 -15 15
-9 0 5 7 -1 16 -13 8 -12 22 -22 30 -22 8 0 14 -4 14 -8 0 -4 31 -39 68 -77
37 -39 88 -99 112 -135 24 -36 48 -68 54 -72 6 -4 8 -8 4 -8 -4 0 8 -29 27
-65 34 -63 89 -213 99 -265 2 -14 5 -25 6 -25 1 0 4 -16 6 -35 3 -19 9 -48 13
-65 14 -57 19 -274 8 -360 -3 -22 -8 -62 -12 -90 -4 -27 -11 -57 -16 -67 -5
-10 -7 -18 -5 -18 3 0 -1 -18 -9 -40 -8 -22 -12 -40 -10 -40 2 0 -7 -27 -20
-60 -13 -33 -20 -60 -17 -60 4 0 2 -4 -3 -8 -6 -4 -26 -38 -45 -77 -18 -38
-40 -76 -47 -83 -7 -7 -13 -17 -13 -22 0 -13 -93 -128 -147 -183 -27 -26 -73
-67 -103 -90 -30 -23 -57 -45 -60 -48 -7 -8 -190 -99 -190 -94 0 2 -17 -3 -37
-11 -20 -9 -49 -18 -63 -20 -14 -2 -36 -6 -50 -9 -53 -11 -198 -16 -552 -17
-280 0 -372 2 -383 12 -8 7 -15 9 -15 5 0 -10 -65 64 -66 76 -1 5 -2 10 -4 12
-9 11 -10 169 -11 1093 -1 806 2 1057 11 1075 16 32 68 78 94 84 12 3 37 6 56
7 69 6 806 1 845 -5z"/>
</g>
</svg>
