<?xml version="1.0" encoding="UTF-8" standalone="no"?>
<!-- Created with Inkscape (http://www.inkscape.org/) -->

<svg
   xmlns:dc="http://purl.org/dc/elements/1.1/"
   xmlns:cc="http://creativecommons.org/ns#"
   xmlns:rdf="http://www.w3.org/1999/02/22-rdf-syntax-ns#"
   xmlns:svg="http://www.w3.org/2000/svg"
   xmlns="http://www.w3.org/2000/svg"
   xmlns:sodipodi="http://sodipodi.sourceforge.net/DTD/sodipodi-0.dtd"
   xmlns:inkscape="http://www.inkscape.org/namespaces/inkscape"
   version="1.1"
   id="svg2"
   width="1445.1752"
   height="1443.6407"
   viewBox="0 0 1445.1752 1443.6408"
   sodipodi:docname="icon-tray-opaque.svg"
   inkscape:version="0.92.1 r15371"
   inkscape:export-filename="/home/solarliner/Code/git/npm/electron/pb-for-desktop/icons/linux/icon-tray-opaque.png"
   inkscape:export-xdpi="17.00555"
   inkscape:export-ydpi="17.00555">
  <metadata
     id="metadata8">
    <rdf:RDF>
      <cc:Work
         rdf:about="">
        <dc:format>image/svg+xml</dc:format>
        <dc:type
           rdf:resource="http://purl.org/dc/dcmitype/StillImage" />
        <dc:title />
      </cc:Work>
    </rdf:RDF>
  </metadata>
  <defs
     id="defs6" />
  <sodipodi:namedview
     pagecolor="#ffffff"
     bordercolor="#666666"
     borderopacity="1"
     objecttolerance="10"
     gridtolerance="10"
     guidetolerance="10"
     inkscape:pageopacity="0"
     inkscape:pageshadow="2"
     inkscape:window-width="1366"
     inkscape:window-height="708"
     id="namedview4"
     showgrid="false"
     fit-margin-top="96"
     fit-margin-left="96"
     fit-margin-right="96"
     fit-margin-bottom="96"
     inkscape:zoom="0.34570315"
     inkscape:cx="-22.850392"
     inkscape:cy="896.43583"
     inkscape:window-x="0"
     inkscape:window-y="0"
     inkscape:window-maximized="1"
     inkscape:current-layer="svg2"
     inkscape:pagecheckerboard="true" />
  <path
     style="fill:#ffffff;fill-opacity:1;stroke-width:1.33333325"
     d="m 667.87443,1346.2894 c -74.35069,-8.0185 -130.02991,-21.9504 -190,-47.5413 -101.68931,-43.3937 -190.41949,-113.1 -257.63756,-202.3997 -59.45113,-78.9811 -101.16469,-176.73393 -116.3082,-272.55987 -8.929482,-56.50451 -10.010624,-90.90159 -4.777544,-152 2.093314,-24.44028 7.463504,-61.56997 11.281404,-78 7.55667,-32.51952 7.44907,-32.11266 14.63385,-55.33333 10.8315,-35.00652 19.76351,-57.73797 34.84038,-88.66666 50.61121,-103.82384 125.12332,-188.804 220.63434,-251.63082 64.97167,-42.73813 129.58908,-69.8613 209.33333,-87.86769 3.3,-0.74514 8.4,-1.91055 11.33333,-2.5898 2.93334,-0.67925 12.83334,-2.40782 22,-3.84128 132.50332,-20.720494 265.82824,-0.23593 382.07554,58.70359 59.3344,30.08363 110.8173,67.39408 158.0116,114.51356 41.6808,41.61477 69.4008,76.93531 98.0031,124.8748 9.4769,15.88386 30.5116,56.76424 35.5914,69.17097 1.201,2.93333 4.0587,9.83333 6.3503,15.33333 12.6715,30.41181 24.126,68.84768 33.1792,111.33333 3.4884,16.37095 7.7192,46.25252 11.0436,78 2.5928,24.76033 2.1597,91.73401 -0.7452,115.24588 -7.2627,58.78364 -20.4946,111.45526 -41.0536,163.42076 -8.4067,21.2489 -30.2263,65.48813 -42.088,85.33333 -43.5962,72.9389 -100.5798,136.1762 -167.6396,186.0377 -76.5634,56.9276 -167.16635,95.8582 -263.39501,113.1765 -14.07151,2.5324 -27.36557,4.3072 -51.14241,6.8274 -20.47191,2.17 -94.87085,2.471 -113.52425,0.4593 z m -118.4874,-324.7827 c 7.74056,-4.1401 13.02415,-9.8287 17.39364,-18.727 l 3.76043,-7.65783 0.34913,-272.60837 c 0.38791,-302.87664 1.12179,-278.3705 -8.72557,-291.36795 -3.41686,-4.50987 -7.55914,-7.93503 -12.89998,-10.66667 L 541.3977,416.4552 H 481.96939 422.5411 l -6.66667,3.54762 c -8.80264,4.68425 -14.36997,10.70001 -18.92781,20.45238 l -3.73885,8 0.2146,270.39273 c 0.16029,201.98044 0.61126,272.04624 1.7824,276.92814 2.74349,11.43613 13.75937,23.82763 24.66966,27.75033 2.67876,0.9631 23.81864,1.354 64,1.1835 59.11847,-0.2509 60.08099,-0.298 65.5126,-3.2032 z m 363.67939,-0.1973 c 49.02365,-11.1018 85.76959,-31.01853 121.76278,-65.99703 52.7492,-51.2621 84.9094,-121.76415 92.4804,-202.73695 1.9714,-21.08436 0.9134,-62.44389 -2.1007,-82.12022 -9.0145,-58.84841 -29.8101,-109.54196 -63.0237,-153.63329 -36.8561,-48.92692 -91.13118,-84.31929 -146.65879,-95.63511 -23.99693,-4.89025 -43.15691,-5.57302 -144.31865,-5.14274 l -96.66667,0.41114 -7.22744,4 c -8.38062,4.63824 -15.11282,12.99398 -18.26246,22.66667 -1.98052,6.08228 -2.14541,30.45069 -1.88105,277.99137 0.2538,237.66193 0.53904,272.07023 2.29901,277.33333 3.97159,11.87693 10.30441,19.30513 20.40528,23.93493 5.93322,2.7195 7.2465,2.7455 118,2.3328 110.4301,-0.4116 112.1849,-0.4593 125.19199,-3.4049 z"
     id="path817"
     inkscape:connector-curvature="0" />
</svg>
